<mxfile host="app.diagrams.net" agent="Mozilla/5.0 (Windows NT 10.0; Win64; x64; rv:129.0) Gecko/20100101 Firefox/129.0" version="24.7.7">
  <diagram name="Strona-1" id="5n1gzQs8BZRNpNOb5FFD">
    <mxGraphModel dx="1114" dy="546" grid="1" gridSize="10" guides="1" tooltips="1" connect="1" arrows="1" fold="1" page="1" pageScale="1" pageWidth="827" pageHeight="1169" math="0" shadow="0">
      <root>
        <mxCell id="0" />
        <mxCell id="1" parent="0" />
        <mxCell id="MuowoX1qL9KpNT2H9gFL-21" value="Kubernetes" style="rounded=0;whiteSpace=wrap;html=1;dashed=1;verticalAlign=bottom;" vertex="1" parent="1">
          <mxGeometry x="220" y="80" width="370" height="410" as="geometry" />
        </mxCell>
        <mxCell id="MuowoX1qL9KpNT2H9gFL-11" style="edgeStyle=orthogonalEdgeStyle;rounded=0;orthogonalLoop=1;jettySize=auto;html=1;entryX=0;entryY=0.25;entryDx=0;entryDy=0;exitX=1;exitY=0.25;exitDx=0;exitDy=0;" edge="1" parent="1" source="MuowoX1qL9KpNT2H9gFL-1" target="MuowoX1qL9KpNT2H9gFL-3">
          <mxGeometry relative="1" as="geometry">
            <mxPoint x="530" y="360" as="sourcePoint" />
          </mxGeometry>
        </mxCell>
        <mxCell id="MuowoX1qL9KpNT2H9gFL-13" value="get policies" style="edgeLabel;html=1;align=center;verticalAlign=middle;resizable=0;points=[];" vertex="1" connectable="0" parent="MuowoX1qL9KpNT2H9gFL-11">
          <mxGeometry x="0.4834" y="-1" relative="1" as="geometry">
            <mxPoint x="-14" y="-13" as="offset" />
          </mxGeometry>
        </mxCell>
        <mxCell id="MuowoX1qL9KpNT2H9gFL-12" style="edgeStyle=orthogonalEdgeStyle;rounded=0;orthogonalLoop=1;jettySize=auto;html=1;exitX=1;exitY=0.75;exitDx=0;exitDy=0;entryX=0;entryY=0.75;entryDx=0;entryDy=0;" edge="1" parent="1" source="MuowoX1qL9KpNT2H9gFL-1" target="MuowoX1qL9KpNT2H9gFL-3">
          <mxGeometry relative="1" as="geometry" />
        </mxCell>
        <mxCell id="MuowoX1qL9KpNT2H9gFL-14" value="access event&lt;br&gt;list consumption event" style="edgeLabel;html=1;align=center;verticalAlign=middle;resizable=0;points=[];" vertex="1" connectable="0" parent="MuowoX1qL9KpNT2H9gFL-12">
          <mxGeometry x="0.6372" y="1" relative="1" as="geometry">
            <mxPoint x="-23" y="24" as="offset" />
          </mxGeometry>
        </mxCell>
        <mxCell id="MuowoX1qL9KpNT2H9gFL-1" value="ip-auth&lt;br&gt;(pod)" style="rounded=0;whiteSpace=wrap;html=1;" vertex="1" parent="1">
          <mxGeometry x="334" y="230" width="120" height="100" as="geometry" />
        </mxCell>
        <mxCell id="MuowoX1qL9KpNT2H9gFL-10" style="edgeStyle=orthogonalEdgeStyle;rounded=0;orthogonalLoop=1;jettySize=auto;html=1;exitX=0;exitY=0;exitDx=100;exitDy=44;exitPerimeter=0;entryX=0.25;entryY=0;entryDx=0;entryDy=0;" edge="1" parent="1" source="MuowoX1qL9KpNT2H9gFL-2" target="MuowoX1qL9KpNT2H9gFL-1">
          <mxGeometry relative="1" as="geometry" />
        </mxCell>
        <mxCell id="MuowoX1qL9KpNT2H9gFL-2" value="&lt;div&gt;IP block list&lt;br&gt;&lt;/div&gt;&lt;div&gt;(config map)&lt;br&gt;&lt;/div&gt;" style="shape=note;whiteSpace=wrap;html=1;backgroundOutline=1;darkOpacity=0.05;size=8;" vertex="1" parent="1">
          <mxGeometry x="240" y="100" width="100" height="70" as="geometry" />
        </mxCell>
        <mxCell id="MuowoX1qL9KpNT2H9gFL-3" value="SAP Geoblocking service" style="rounded=0;whiteSpace=wrap;html=1;" vertex="1" parent="1">
          <mxGeometry x="750" y="230" width="120" height="100" as="geometry" />
        </mxCell>
        <mxCell id="MuowoX1qL9KpNT2H9gFL-8" style="edgeStyle=orthogonalEdgeStyle;rounded=0;orthogonalLoop=1;jettySize=auto;html=1;exitX=0;exitY=0.5;exitDx=0;exitDy=0;exitPerimeter=0;entryX=0.75;entryY=0;entryDx=0;entryDy=0;" edge="1" parent="1" source="MuowoX1qL9KpNT2H9gFL-4" target="MuowoX1qL9KpNT2H9gFL-1">
          <mxGeometry relative="1" as="geometry" />
        </mxCell>
        <mxCell id="MuowoX1qL9KpNT2H9gFL-4" value="&lt;div&gt;SAP geoblocking service&lt;/div&gt;&lt;div&gt;credentials&lt;br&gt;(secret)&lt;br&gt;&lt;/div&gt;" style="shape=note;whiteSpace=wrap;html=1;backgroundOutline=1;darkOpacity=0.05;size=10;" vertex="1" parent="1">
          <mxGeometry x="449.75" y="100" width="126" height="70" as="geometry" />
        </mxCell>
        <mxCell id="MuowoX1qL9KpNT2H9gFL-5" value="&lt;div&gt;IP block list&lt;/div&gt;&lt;div&gt;cache&lt;br&gt;&lt;/div&gt;&lt;div&gt;(config map)&lt;br&gt;&lt;/div&gt;" style="shape=note;whiteSpace=wrap;html=1;backgroundOutline=1;darkOpacity=0.05;size=18;" vertex="1" parent="1">
          <mxGeometry x="472.75" y="350" width="80" height="100" as="geometry" />
        </mxCell>
        <mxCell id="MuowoX1qL9KpNT2H9gFL-6" style="edgeStyle=orthogonalEdgeStyle;rounded=0;orthogonalLoop=1;jettySize=auto;html=1;exitX=0.75;exitY=1;exitDx=0;exitDy=0;entryX=0;entryY=0.5;entryDx=0;entryDy=0;entryPerimeter=0;startArrow=classic;startFill=1;" edge="1" parent="1" source="MuowoX1qL9KpNT2H9gFL-1" target="MuowoX1qL9KpNT2H9gFL-5">
          <mxGeometry relative="1" as="geometry" />
        </mxCell>
        <mxCell id="MuowoX1qL9KpNT2H9gFL-16" value="Static list of IP addresses" style="text;html=1;align=center;verticalAlign=middle;whiteSpace=wrap;rounded=0;" vertex="1" parent="1">
          <mxGeometry x="244" y="30" width="90" height="30" as="geometry" />
        </mxCell>
        <mxCell id="MuowoX1qL9KpNT2H9gFL-20" value="List of IP addresses obtained from SAP" style="text;html=1;align=center;verticalAlign=middle;whiteSpace=wrap;rounded=0;" vertex="1" parent="1">
          <mxGeometry x="455.75" y="30" width="120" height="30" as="geometry" />
        </mxCell>
      </root>
    </mxGraphModel>
  </diagram>
</mxfile>
